<?xml version="1.0" encoding="UTF-8"?>
<svg version="1.1" xmlns="http://www.w3.org/2000/svg" width="50" height="50">
<path d="M0 0 C4.39513933 2.15761385 7.06922711 4.45700495 9 9 C8.6875 11.3125 8.6875 11.3125 8 13 C5.98177083 12.73958333 3.96354167 12.47916667 1.9453125 12.21875 C-0.00498344 11.9627515 -0.00498344 11.9627515 -2 12 C-2 12.99 -2 13.98 -2 15 C-2.66 15 -3.32 15 -4 15 C-3.50118117 21.18454907 -3.50118117 21.18454907 0 26 C3.59067962 27.28842537 3.59067962 27.28842537 7 28 C5.71480435 30.86697492 4.42870746 32.97607712 2 35 C1.34 35 0.68 35 0 35 C0 35.66 0 36.32 0 37 C-9.39172432 40.89582638 -17.86801159 41.26884325 -27.41796875 37.65625 C-27.94003906 37.4396875 -28.46210938 37.223125 -29 37 C-29 36.34 -29 35.68 -29 35 C-30.0828125 34.7215625 -30.0828125 34.7215625 -31.1875 34.4375 C-35.12705535 32.42394949 -37.342134 30.0397796 -39 26 C-39.76092821 21.0509229 -40.47247562 15.53367357 -37.8671875 11.05078125 C-36.5 9.6875 -36.5 9.6875 -34 8 C-33.01 8.33 -32.02 8.66 -31 9 C-31 9.66 -31 10.32 -31 11 C-29.68 11.33 -28.36 11.66 -27 12 C-27 13.32 -27 14.64 -27 16 C-28.32 16 -29.64 16 -31 16 C-31 17.98 -31 19.96 -31 22 C-28.12688428 22.05175552 -28.12688428 22.05175552 -25 21 C-22.55709138 17.51013054 -21.13067916 14.32953876 -19.5625 10.375 C-15.47177942 1.53904355 -9.21735658 -1.16293751 0 0 Z " fill="#0259FA" transform="translate(40,5)"/>
<path d="M0 0 C0.33 0 0.66 0 1 0 C1.28875 0.928125 1.5775 1.85625 1.875 2.8125 C2.8875 6.09791667 2.8875 6.09791667 5 9 C8.55672179 10.2188121 8.55672179 10.2188121 12 11 C10.71480435 13.86697492 9.42870746 15.97607712 7 18 C6.34 18 5.68 18 5 18 C5 18.66 5 19.32 5 20 C-4.39172432 23.89582638 -12.86801159 24.26884325 -22.41796875 20.65625 C-22.94003906 20.4396875 -23.46210938 20.223125 -24 20 C-24 19.34 -24 18.68 -24 18 C-24.78375 17.731875 -25.5675 17.46375 -26.375 17.1875 C-29 16 -29 16 -31 13 C-29.9790625 13.433125 -29.9790625 13.433125 -28.9375 13.875 C-21.08168334 16.88361064 -15.20274182 17.73424727 -7.1875 15.0625 C-3.01652099 11.12986265 -1.77526516 5.32579549 0 0 Z " fill="#024AF8" transform="translate(35,22)"/>
<path d="M0 0 C3.95618991 0.56516999 5.08509807 1.40892553 7.5 4.5 C4.54335481 5.9783226 1.75770263 5.56032783 -1.5 5.5 C-1.5 6.49 -1.5 7.48 -1.5 8.5 C-2.16 8.5 -2.82 8.5 -3.5 8.5 C-3.67015625 9.22445313 -3.8403125 9.94890625 -4.015625 10.6953125 C-7.22814755 23.51122694 -7.22814755 23.51122694 -13.6875 27.4375 C-18.30872415 28.72538214 -21.84505101 28.37610151 -26.5 27.5 C-24.187206 26.32366512 -21.89854867 25.24939528 -19.5 24.25 C-13.09144485 20.51167617 -11.34997854 13.95974031 -8.84375 7.3046875 C-6.70281003 2.83609767 -4.97588688 0.71084098 0 0 Z " fill="#01A0F7" transform="translate(39.5,11.5)"/>
<path d="M0 0 C0.99 0.33 1.98 0.66 3 1 C3 1.66 3 2.32 3 3 C4.32 3.33 5.64 3.66 7 4 C7 5.32 7 6.64 7 8 C5.68 7.67 4.36 7.34 3 7 C3.99 7 4.98 7 6 7 C6 6.34 6 5.68 6 5 C1.545 6.485 1.545 6.485 -3 8 C-3.33 10.64 -3.66 13.28 -4 16 C-4.33 16 -4.66 16 -5 16 C-5.76681614 6.26995516 -5.76681614 6.26995516 -3.88671875 3.15625 C-2.5 1.8125 -2.5 1.8125 0 0 Z " fill="#0B61F0" transform="translate(6,13)"/>
<path d="M0 0 C1.0209375 0.433125 1.0209375 0.433125 2.0625 0.875 C5.32893093 2.12597355 8.62846123 3.07447955 12 4 C12 5.32 12 6.64 12 8 C10.35 7.67 8.7 7.34 7 7 C7 6.34 7 5.68 7 5 C6.21625 4.731875 5.4325 4.46375 4.625 4.1875 C2 3 2 3 0 0 Z " fill="#0543F0" transform="translate(4,35)"/>
<path d="M0 0 C-0.75 1.875 -0.75 1.875 -2 4 C-2.97453125 4.41765625 -2.97453125 4.41765625 -3.96875 4.84375 C-6.66718708 6.37978342 -6.91092736 7.68824578 -7.75 10.625 C-7.99234375 11.44226562 -8.2346875 12.25953125 -8.484375 13.1015625 C-8.65453125 13.72804688 -8.8246875 14.35453125 -9 15 C-10.1756226 11.47313219 -9.54610097 10.08162929 -8.02734375 6.78515625 C-6.2245408 3.65252907 -3.84247657 0 0 0 Z " fill="#1568EA" transform="translate(29,7)"/>
</svg>
